<svg xmlns="http://www.w3.org/2000/svg" id="SvgjsSvg27708" width="4096" height="1212.392362266676" version="1.1" xmlns:xlink="http://www.w3.org/1999/xlink" xmlns:svgjs="http://svgjs.com/svgjs"><defs id="SvgjsDefs27709"></defs><g id="SvgjsG27710" transform="translate(328, 328) scale(34.4)" opacity="1"><defs id="SvgjsDefs7058"></defs><g id="SvgjsG7059" transform="scale(0.21510513810996126)" opacity="1"><g id="SvgjsG7060" class="text" transform="translate(265.7296277949467, 42.94) scale(1)" light-content="false" fill="#080808"><path d="M25.64 -39.37L45.17 -39.37L45.17 -42.94L2.23 -42.94L2.23 -39.37L21.77 -39.37L21.77 0L25.64 0Z M72.77 -18.19L92.92 -42.94L88.23 -42.94L70.83 -21.44L53.36 -42.94L48.7 -42.94L68.86 -18.19L68.86 0L72.77 0Z"></path></g><g id="SvgjsG7061" class="text" transform="translate(227.98962962600143, 44.04385378277042) scale(1)" light-content="false" fill="#080808"><path d="M-92.26 0L-89.62 0C-89.76 -1.64 -90.1 -3.11 -90.66 -4.41C-91.22 -5.71 -91.92 -6.86 -92.75 -7.87C-93.57 -8.89 -94.51 -9.76 -95.54 -10.51C-96.58 -11.25 -97.65 -11.88 -98.75 -12.4C-99.85 -12.91 -100.95 -13.32 -102.06 -13.63C-103.16 -13.93 -104.18 -14.16 -105.12 -14.31C-104.37 -14.49 -103.53 -14.75 -102.6 -15.1C-101.67 -15.45 -100.72 -15.89 -99.75 -16.41C-98.78 -16.94 -97.82 -17.57 -96.88 -18.3C-95.93 -19.03 -95.08 -19.88 -94.31 -20.85C-93.55 -21.82 -92.9 -22.91 -92.38 -24.12C-91.85 -25.33 -91.52 -26.68 -91.38 -28.17L-94.03 -28.17C-94.16 -26.82 -94.51 -25.56 -95.07 -24.4C-95.63 -23.24 -96.35 -22.18 -97.23 -21.21C-98.1 -20.25 -99.11 -19.39 -100.25 -18.65C-101.39 -17.9 -102.62 -17.28 -103.94 -16.76C-105.26 -16.25 -106.64 -15.86 -108.09 -15.59C-109.54 -15.33 -111 -15.19 -112.46 -15.19L-116.13 -15.19L-116.13 -28.17L-118.7 -28.17L-118.7 0L-116.13 0L-116.13 -12.94L-111.76 -12.94C-110.32 -12.94 -108.85 -12.83 -107.36 -12.62C-105.87 -12.41 -104.42 -12.08 -103.03 -11.63C-101.63 -11.18 -100.32 -10.6 -99.07 -9.91C-97.83 -9.22 -96.72 -8.4 -95.76 -7.44C-94.8 -6.49 -94.01 -5.39 -93.39 -4.15C-92.78 -2.92 -92.4 -1.53 -92.26 0Z M-79.71 -9.74L-79.71 -28.17L-82.28 -28.17L-82.28 -9.25C-82.28 -7.65 -82.11 -6.27 -81.77 -5.11C-81.42 -3.94 -80.82 -2.98 -79.95 -2.22C-79.08 -1.47 -77.91 -0.91 -76.44 -0.54C-74.97 -0.18 -73.11 0 -70.86 0L-57.61 0L-57.61 -2.48L-70.34 -2.48C-72.39 -2.48 -74.04 -2.62 -75.28 -2.9C-76.51 -3.18 -77.46 -3.62 -78.12 -4.2C-78.77 -4.79 -79.2 -5.54 -79.41 -6.46C-79.61 -7.38 -79.71 -8.47 -79.71 -9.74Z M-52.46 0L-49.9 0L-49.9 -28.17L-52.46 -28.17Z M-37.84 -28.17L-40.41 -28.17L-40.41 0L-37.84 0L-37.84 -20.71C-37.3 -21.38 -36.65 -22.05 -35.89 -22.73C-35.14 -23.41 -34.32 -24.02 -33.43 -24.57C-32.55 -25.11 -31.61 -25.56 -30.63 -25.9C-29.66 -26.24 -28.67 -26.41 -27.67 -26.41C-26.62 -26.41 -25.65 -26.28 -24.75 -26.03C-23.85 -25.78 -23.08 -25.36 -22.42 -24.77C-21.77 -24.18 -21.25 -23.41 -20.88 -22.46C-20.52 -21.51 -20.33 -20.34 -20.33 -18.95L-20.33 0L-17.77 0L-17.77 -19.28C-17.77 -19.66 -17.77 -19.99 -17.78 -20.26C-17.78 -20.53 -17.82 -20.86 -17.89 -21.24C-17.29 -21.9 -16.59 -22.54 -15.8 -23.15C-15.01 -23.77 -14.15 -24.32 -13.24 -24.8C-12.32 -25.29 -11.36 -25.68 -10.36 -25.97C-9.35 -26.26 -8.34 -26.41 -7.31 -26.41C-6.03 -26.41 -4.92 -26.24 -4 -25.91C-3.08 -25.57 -2.32 -25.08 -1.72 -24.44C-1.13 -23.8 -0.69 -23.02 -0.41 -22.09C-0.13 -21.17 0.01 -20.12 0.01 -18.95L0.01 0L2.57 0L2.57 -19.6C2.57 -20.89 2.35 -22.09 1.91 -23.22C1.46 -24.35 0.84 -25.33 0.03 -26.16C-0.78 -27 -1.76 -27.65 -2.91 -28.13C-4.07 -28.61 -5.35 -28.85 -6.76 -28.85C-7.86 -28.85 -8.94 -28.73 -9.98 -28.48C-11.01 -28.24 -12.02 -27.89 -13 -27.44C-13.98 -26.99 -14.93 -26.43 -15.86 -25.79C-16.79 -25.14 -17.69 -24.41 -18.57 -23.6C-19.47 -25.39 -20.65 -26.72 -22.12 -27.57C-23.58 -28.42 -25.26 -28.85 -27.16 -28.85C-28.35 -28.85 -29.46 -28.69 -30.5 -28.36C-31.54 -28.03 -32.5 -27.62 -33.39 -27.13C-34.28 -26.64 -35.09 -26.1 -35.83 -25.51C-36.57 -24.92 -37.24 -24.37 -37.84 -23.85Z M37.43 0L39.98 0L39.98 -19.11C39.98 -20.85 39.6 -22.32 38.85 -23.53C38.1 -24.74 37.06 -25.73 35.75 -26.49C34.44 -27.26 32.89 -27.82 31.12 -28.16C29.34 -28.51 27.43 -28.69 25.38 -28.69C22.96 -28.69 20.67 -28.5 18.52 -28.12C16.36 -27.75 14.34 -27.31 12.44 -26.8L12.44 -23.81C13.35 -24.16 14.26 -24.5 15.16 -24.81C16.07 -25.13 17.01 -25.4 17.99 -25.64C18.98 -25.88 20.04 -26.07 21.17 -26.21C22.31 -26.34 23.56 -26.41 24.94 -26.41C25.97 -26.41 26.99 -26.37 28.01 -26.28C29.03 -26.19 30 -26.04 30.92 -25.84C31.84 -25.63 32.7 -25.36 33.5 -25.03C34.29 -24.69 34.98 -24.28 35.57 -23.78C36.15 -23.28 36.61 -22.69 36.94 -22.02C37.27 -21.35 37.43 -20.58 37.43 -19.71L37.43 -17.55C34.79 -17.4 32.28 -17.21 29.9 -16.99C27.51 -16.76 25.29 -16.48 23.24 -16.13C21.19 -15.78 19.34 -15.36 17.68 -14.86C16.01 -14.36 14.6 -13.75 13.42 -13.03C12.25 -12.31 11.34 -11.47 10.7 -10.51C10.07 -9.55 9.75 -8.43 9.75 -7.18C9.75 -5.91 10.02 -4.79 10.57 -3.82C11.12 -2.86 11.9 -2.05 12.91 -1.4C13.92 -0.76 15.15 -0.27 16.61 0.06C18.07 0.39 19.71 0.55 21.54 0.55C22.95 0.55 24.38 0.46 25.85 0.29C27.31 0.11 28.73 -0.14 30.12 -0.47C31.51 -0.8 32.83 -1.19 34.08 -1.64C35.33 -2.09 36.45 -2.58 37.43 -3.12ZM37.43 -15.28L37.43 -5.8C36.97 -5.45 36.4 -5.1 35.72 -4.76C35.04 -4.42 34.3 -4.09 33.47 -3.79C32.65 -3.49 31.78 -3.22 30.85 -2.96C29.92 -2.71 28.98 -2.49 28.02 -2.31C27.06 -2.12 26.1 -1.98 25.14 -1.88C24.18 -1.77 23.24 -1.72 22.34 -1.72C20.81 -1.72 19.43 -1.84 18.2 -2.08C16.97 -2.32 15.92 -2.68 15.06 -3.15C14.2 -3.62 13.54 -4.2 13.08 -4.9C12.62 -5.6 12.4 -6.4 12.4 -7.3C12.4 -8.41 12.86 -9.4 13.8 -10.27C14.74 -11.15 16.21 -11.91 18.22 -12.57C20.23 -13.23 22.82 -13.78 25.98 -14.23C29.14 -14.68 32.96 -15.03 37.43 -15.28Z"></path></g><g id="SvgjsG7062" class="EuXumy5bcw" transform="translate(-20.03273323202003, -7.234298987522365) scale(2.0867430450020863)" light-content="false" non-strokable="false" fill="#080808"><path d="M28.8 11.8c-.5-.2-1.1.1-1.3.6-.2.5.1 1.1.6 1.3 4.9 1.7 8.1 6.4 8.1 11.6 0 6.8-5.5 12.3-12.3 12.3S11.7 32 11.7 25.2c0-5.2 3.3-9.8 8.1-11.6.5-.2.8-.8.6-1.3s-.8-.8-1.3-.6c-5.7 2-9.5 7.4-9.5 13.5 0 7.9 6.4 14.3 14.3 14.3s14.3-6.4 14.3-14.3c.1-6-3.7-11.4-9.4-13.4z"></path><path d="M24 23.4c.6 0 1-.4 1-1V9.5c0-.6-.4-1-1-1s-1 .4-1 1v12.9c0 .5.4 1 1 1z"></path></g><rect id="SvgjsRect7063" width="1.399831956960631" height="64.68903439506468" fill="#080808" transform="translate(82.34286445450927, 10.503016894995369) scale(1)" light-content="false"></rect><g id="SvgjsG7064" class="text" transform="translate(286.9496296260014, 74.91681658218857) scale(1)" light-content="false" fill="#080808"><path d="M-176.36 -7.45L-176.36 -14.09L-177.66 -14.09L-177.66 0L-176.36 0L-176.36 -7.18L-165.65 0L-163.46 0L-174.42 -7.33L-164.1 -14.09L-165.88 -14.09Z M-159.45 -4.87L-159.45 -14.09L-160.74 -14.09L-160.74 -4.62C-160.74 -3.82 -160.65 -3.13 -160.48 -2.55C-160.31 -1.97 -160.01 -1.49 -159.57 -1.11C-159.14 -0.73 -158.55 -0.45 -157.82 -0.27C-157.08 -0.09 -156.15 0 -155.03 0L-148.4 0L-148.4 -1.24L-154.77 -1.24C-155.79 -1.24 -156.62 -1.31 -157.24 -1.45C-157.85 -1.59 -158.33 -1.81 -158.66 -2.1C-158.98 -2.4 -159.2 -2.77 -159.3 -3.23C-159.4 -3.69 -159.45 -4.23 -159.45 -4.87Z M-145.83 0L-144.55 0L-144.55 -14.09L-145.83 -14.09Z M-138.52 -14.09L-139.8 -14.09L-139.8 0L-138.52 0L-138.52 -10.36C-138.25 -10.69 -137.92 -11.03 -137.54 -11.37C-137.17 -11.7 -136.76 -12.01 -136.31 -12.28C-135.87 -12.56 -135.4 -12.78 -134.91 -12.95C-134.43 -13.12 -133.93 -13.21 -133.43 -13.21C-132.91 -13.21 -132.42 -13.14 -131.97 -13.02C-131.52 -12.89 -131.14 -12.68 -130.81 -12.39C-130.48 -12.09 -130.22 -11.71 -130.04 -11.23C-129.86 -10.76 -129.76 -10.17 -129.76 -9.47L-129.76 0L-128.48 0L-128.48 -9.64C-128.48 -9.83 -128.48 -9.99 -128.49 -10.13C-128.49 -10.27 -128.51 -10.43 -128.54 -10.62C-128.24 -10.95 -127.89 -11.27 -127.5 -11.58C-127.1 -11.88 -126.67 -12.16 -126.22 -12.4C-125.76 -12.64 -125.28 -12.84 -124.78 -12.99C-124.27 -13.13 -123.77 -13.21 -123.25 -13.21C-122.61 -13.21 -122.06 -13.12 -121.6 -12.95C-121.14 -12.79 -120.76 -12.54 -120.46 -12.22C-120.16 -11.9 -119.94 -11.51 -119.8 -11.05C-119.66 -10.59 -119.59 -10.06 -119.59 -9.47L-119.59 0L-118.31 0L-118.31 -9.8C-118.31 -10.44 -118.42 -11.05 -118.64 -11.61C-118.87 -12.18 -119.18 -12.67 -119.58 -13.08C-119.99 -13.5 -120.48 -13.83 -121.05 -14.07C-121.63 -14.31 -122.27 -14.43 -122.98 -14.43C-123.53 -14.43 -124.07 -14.36 -124.59 -14.24C-125.1 -14.12 -125.61 -13.94 -126.1 -13.72C-126.59 -13.49 -127.06 -13.22 -127.53 -12.89C-127.99 -12.57 -128.44 -12.2 -128.88 -11.8C-129.33 -12.7 -129.92 -13.36 -130.65 -13.78C-131.39 -14.21 -132.23 -14.43 -133.18 -14.43C-133.77 -14.43 -134.33 -14.34 -134.85 -14.18C-135.37 -14.02 -135.85 -13.81 -136.29 -13.56C-136.74 -13.32 -137.14 -13.05 -137.51 -12.75C-137.88 -12.46 -138.22 -12.18 -138.52 -11.92Z M-100.88 0L-99.61 0L-99.61 -9.56C-99.61 -10.42 -99.8 -11.16 -100.17 -11.76C-100.55 -12.37 -101.07 -12.86 -101.72 -13.25C-102.38 -13.63 -103.15 -13.91 -104.04 -14.08C-104.93 -14.26 -105.88 -14.34 -106.91 -14.34C-108.12 -14.34 -109.26 -14.25 -110.34 -14.06C-111.42 -13.87 -112.43 -13.65 -113.38 -13.4L-113.38 -11.9C-112.92 -12.08 -112.47 -12.25 -112.02 -12.41C-111.56 -12.56 -111.09 -12.7 -110.6 -12.82C-110.11 -12.94 -109.58 -13.03 -109.01 -13.1C-108.44 -13.17 -107.82 -13.21 -107.13 -13.21C-106.61 -13.21 -106.1 -13.18 -105.59 -13.14C-105.08 -13.09 -104.6 -13.02 -104.14 -12.92C-103.68 -12.82 -103.25 -12.68 -102.85 -12.51C-102.45 -12.35 -102.11 -12.14 -101.81 -11.89C-101.52 -11.64 -101.29 -11.35 -101.13 -11.01C-100.96 -10.68 -100.88 -10.29 -100.88 -9.85L-100.88 -8.78C-102.2 -8.7 -103.46 -8.61 -104.65 -8.49C-105.84 -8.38 -106.95 -8.24 -107.98 -8.06C-109 -7.89 -109.93 -7.68 -110.76 -7.43C-111.59 -7.18 -112.3 -6.87 -112.89 -6.52C-113.47 -6.16 -113.93 -5.74 -114.25 -5.25C-114.56 -4.77 -114.72 -4.22 -114.72 -3.59C-114.72 -2.95 -114.59 -2.39 -114.31 -1.91C-114.04 -1.43 -113.65 -1.03 -113.14 -0.7C-112.64 -0.38 -112.02 -0.13 -111.29 0.03C-110.56 0.19 -109.74 0.28 -108.83 0.28C-108.12 0.28 -107.41 0.23 -106.67 0.14C-105.94 0.05 -105.23 -0.07 -104.54 -0.24C-103.84 -0.4 -103.18 -0.59 -102.56 -0.82C-101.93 -1.05 -101.37 -1.29 -100.88 -1.56ZM-100.88 -7.64L-100.88 -2.9C-101.11 -2.72 -101.4 -2.55 -101.74 -2.38C-102.08 -2.21 -102.45 -2.05 -102.86 -1.9C-103.27 -1.75 -103.71 -1.61 -104.17 -1.48C-104.64 -1.36 -105.11 -1.25 -105.59 -1.15C-106.07 -1.06 -106.55 -0.99 -107.03 -0.94C-107.51 -0.89 -107.98 -0.86 -108.43 -0.86C-109.19 -0.86 -109.88 -0.92 -110.5 -1.04C-111.11 -1.16 -111.64 -1.34 -112.07 -1.57C-112.5 -1.81 -112.83 -2.1 -113.06 -2.45C-113.29 -2.8 -113.4 -3.2 -113.4 -3.65C-113.4 -4.2 -113.17 -4.7 -112.7 -5.14C-112.23 -5.57 -111.49 -5.96 -110.49 -6.28C-109.48 -6.61 -108.19 -6.89 -106.61 -7.12C-105.02 -7.34 -103.12 -7.52 -100.88 -7.64Z M-89.48 -12.92L-83.07 -12.92L-83.07 -14.09L-97.16 -14.09L-97.16 -12.92L-90.75 -12.92L-90.75 0L-89.48 0Z M-65.92 -5.15L-65.92 -14.09L-67.22 -14.09L-67.22 -9.56C-67.58 -9.03 -67.98 -8.53 -68.43 -8.05C-68.88 -7.57 -69.38 -7.15 -69.94 -6.78C-70.49 -6.42 -71.1 -6.13 -71.77 -5.91C-72.44 -5.7 -73.18 -5.59 -73.98 -5.59C-75.01 -5.59 -75.88 -5.71 -76.58 -5.96C-77.28 -6.21 -77.84 -6.57 -78.27 -7.02C-78.7 -7.48 -79.01 -8.03 -79.2 -8.67C-79.39 -9.32 -79.48 -10.03 -79.48 -10.82L-79.48 -14.09L-80.79 -14.09L-80.79 -10.54C-80.79 -10.03 -80.74 -9.52 -80.65 -9.02C-80.56 -8.52 -80.4 -8.05 -80.2 -7.59C-79.99 -7.14 -79.71 -6.72 -79.37 -6.33C-79.03 -5.94 -78.61 -5.61 -78.12 -5.33C-77.62 -5.05 -77.04 -4.83 -76.37 -4.67C-75.71 -4.51 -74.94 -4.43 -74.08 -4.43C-73.32 -4.43 -72.6 -4.52 -71.92 -4.71C-71.23 -4.9 -70.6 -5.15 -70.02 -5.46C-69.43 -5.77 -68.9 -6.13 -68.43 -6.54C-67.95 -6.94 -67.55 -7.37 -67.22 -7.81L-67.22 -5.15C-67.22 -4.46 -67.41 -3.86 -67.78 -3.33C-68.15 -2.81 -68.66 -2.36 -69.3 -2C-69.94 -1.65 -70.69 -1.37 -71.55 -1.18C-72.41 -1 -73.33 -0.9 -74.32 -0.9C-75.01 -0.9 -75.66 -0.93 -76.26 -1C-76.86 -1.06 -77.42 -1.16 -77.95 -1.28C-78.47 -1.4 -78.97 -1.53 -79.43 -1.69C-79.9 -1.85 -80.35 -2.02 -80.79 -2.2L-80.79 -0.72C-79.97 -0.42 -79.02 -0.18 -77.94 -0.02C-76.85 0.15 -75.66 0.24 -74.36 0.24C-73.16 0.24 -72.05 0.13 -71.02 -0.09C-69.99 -0.3 -69.1 -0.63 -68.34 -1.08C-67.59 -1.52 -67 -2.08 -66.57 -2.75C-66.13 -3.43 -65.92 -4.22 -65.92 -5.15Z M-62.03 0L-49.62 0L-49.62 -1.2L-60.35 -1.2L-49.83 -13.4L-49.83 -14.09L-61.76 -14.09L-61.76 -12.89L-51.82 -12.89L-62.03 -1.05Z M-33.13 0L-31.86 0L-31.86 -9.56C-31.86 -10.42 -32.05 -11.16 -32.42 -11.76C-32.8 -12.37 -33.32 -12.86 -33.97 -13.25C-34.63 -13.63 -35.4 -13.91 -36.29 -14.08C-37.18 -14.26 -38.13 -14.34 -39.16 -14.34C-40.37 -14.34 -41.51 -14.25 -42.59 -14.06C-43.67 -13.87 -44.68 -13.65 -45.63 -13.4L-45.63 -11.9C-45.17 -12.08 -44.72 -12.25 -44.27 -12.41C-43.81 -12.56 -43.34 -12.7 -42.85 -12.82C-42.36 -12.94 -41.83 -13.03 -41.26 -13.1C-40.69 -13.17 -40.07 -13.21 -39.38 -13.21C-38.86 -13.21 -38.35 -13.18 -37.84 -13.14C-37.33 -13.09 -36.85 -13.02 -36.39 -12.92C-35.93 -12.82 -35.5 -12.68 -35.1 -12.51C-34.7 -12.35 -34.36 -12.14 -34.06 -11.89C-33.77 -11.64 -33.54 -11.35 -33.38 -11.01C-33.21 -10.68 -33.13 -10.29 -33.13 -9.85L-33.13 -8.78C-34.45 -8.7 -35.71 -8.61 -36.9 -8.49C-38.09 -8.38 -39.2 -8.24 -40.23 -8.06C-41.25 -7.89 -42.18 -7.68 -43.01 -7.43C-43.84 -7.18 -44.55 -6.87 -45.14 -6.52C-45.73 -6.16 -46.18 -5.74 -46.5 -5.25C-46.81 -4.77 -46.97 -4.22 -46.97 -3.59C-46.97 -2.95 -46.84 -2.39 -46.56 -1.91C-46.29 -1.43 -45.9 -1.03 -45.39 -0.7C-44.89 -0.38 -44.27 -0.13 -43.54 0.03C-42.82 0.19 -41.99 0.28 -41.08 0.28C-40.37 0.28 -39.66 0.23 -38.92 0.14C-38.19 0.05 -37.48 -0.07 -36.79 -0.24C-36.09 -0.4 -35.43 -0.59 -34.81 -0.82C-34.18 -1.05 -33.62 -1.29 -33.13 -1.56ZM-33.13 -7.64L-33.13 -2.9C-33.36 -2.72 -33.65 -2.55 -33.99 -2.38C-34.33 -2.21 -34.7 -2.05 -35.11 -1.9C-35.52 -1.75 -35.96 -1.61 -36.42 -1.48C-36.89 -1.36 -37.36 -1.25 -37.84 -1.15C-38.32 -1.06 -38.8 -0.99 -39.28 -0.94C-39.76 -0.89 -40.23 -0.86 -40.68 -0.86C-41.44 -0.86 -42.13 -0.92 -42.75 -1.04C-43.36 -1.16 -43.89 -1.34 -44.32 -1.57C-44.75 -1.81 -45.08 -2.1 -45.31 -2.45C-45.54 -2.8 -45.65 -3.2 -45.65 -3.65C-45.65 -4.2 -45.42 -4.7 -44.95 -5.14C-44.48 -5.57 -43.74 -5.96 -42.74 -6.28C-41.73 -6.61 -40.44 -6.89 -38.86 -7.12C-37.28 -7.34 -35.37 -7.52 -33.13 -7.64Z M-12.79 -1.12L-12.79 -1.12L-12.79 -2.65C-13.15 -2.41 -13.55 -2.18 -13.99 -1.96C-14.44 -1.75 -14.92 -1.56 -15.44 -1.39C-15.96 -1.23 -16.52 -1.1 -17.12 -1C-17.72 -0.91 -18.35 -0.86 -19.02 -0.86C-20.38 -0.86 -21.55 -1.01 -22.54 -1.3C-23.53 -1.59 -24.35 -2 -25 -2.54C-25.64 -3.07 -26.12 -3.72 -26.43 -4.48C-26.74 -5.24 -26.9 -6.09 -26.9 -7.03C-26.9 -7.98 -26.74 -8.83 -26.43 -9.59C-26.12 -10.35 -25.64 -11 -25 -11.54C-24.35 -12.08 -23.53 -12.49 -22.54 -12.79C-21.55 -13.08 -20.38 -13.23 -19.02 -13.23C-18.35 -13.23 -17.73 -13.18 -17.14 -13.08C-16.55 -12.99 -16 -12.86 -15.48 -12.69C-14.97 -12.53 -14.49 -12.34 -14.04 -12.12C-13.6 -11.9 -13.18 -11.67 -12.79 -11.42L-12.79 -12.96C-13.28 -13.16 -13.77 -13.35 -14.25 -13.52C-14.73 -13.69 -15.23 -13.83 -15.75 -13.95C-16.27 -14.08 -16.82 -14.17 -17.39 -14.24C-17.97 -14.31 -18.59 -14.34 -19.27 -14.34C-20.11 -14.34 -20.91 -14.28 -21.68 -14.14C-22.44 -14 -23.16 -13.8 -23.82 -13.52C-24.49 -13.25 -25.09 -12.91 -25.63 -12.5C-26.17 -12.1 -26.63 -11.62 -27.02 -11.08C-27.4 -10.54 -27.7 -9.93 -27.91 -9.26C-28.12 -8.58 -28.22 -7.84 -28.22 -7.03C-28.22 -6.23 -28.12 -5.49 -27.91 -4.81C-27.7 -4.13 -27.4 -3.52 -27.02 -2.98C-26.63 -2.44 -26.17 -1.97 -25.63 -1.56C-25.09 -1.16 -24.49 -0.82 -23.82 -0.54C-23.16 -0.27 -22.44 -0.06 -21.67 0.07C-20.91 0.21 -20.1 0.28 -19.27 0.28C-18.59 0.28 -17.97 0.24 -17.39 0.17C-16.82 0.11 -16.27 0.01 -15.75 -0.11C-15.23 -0.24 -14.73 -0.38 -14.25 -0.55C-13.77 -0.72 -13.28 -0.91 -12.79 -1.12Z M-1.26 -4.51L-1.26 -14.09L-2.54 -14.09L-2.54 -4.45C-2.54 -3.9 -2.64 -3.41 -2.85 -2.98C-3.05 -2.55 -3.33 -2.19 -3.69 -1.89C-4.05 -1.59 -4.47 -1.37 -4.95 -1.21C-5.43 -1.06 -5.95 -0.98 -6.51 -0.98C-7.12 -0.98 -7.67 -1.01 -8.14 -1.06C-8.62 -1.1 -9.04 -1.17 -9.43 -1.25C-9.81 -1.33 -10.16 -1.43 -10.46 -1.53C-10.77 -1.63 -11.07 -1.74 -11.35 -1.85L-11.35 -0.52C-11.07 -0.45 -10.78 -0.37 -10.47 -0.29C-10.16 -0.21 -9.82 -0.14 -9.45 -0.07C-9.09 0 -8.69 0.05 -8.26 0.1C-7.83 0.14 -7.36 0.16 -6.84 0.16C-6.02 0.16 -5.26 0.07 -4.58 -0.13C-3.89 -0.32 -3.31 -0.62 -2.81 -1C-2.32 -1.39 -1.94 -1.88 -1.67 -2.47C-1.39 -3.05 -1.26 -3.73 -1.26 -4.51Z M16.17 0L17.44 0L17.44 -9.56C17.44 -10.42 17.26 -11.16 16.88 -11.76C16.51 -12.37 15.99 -12.86 15.33 -13.25C14.68 -13.63 13.9 -13.91 13.02 -14.08C12.13 -14.26 11.17 -14.34 10.15 -14.34C8.94 -14.34 7.79 -14.25 6.72 -14.06C5.64 -13.87 4.63 -13.65 3.68 -13.4L3.68 -11.9C4.13 -12.08 4.59 -12.25 5.04 -12.41C5.49 -12.56 5.96 -12.7 6.45 -12.82C6.95 -12.94 7.48 -13.03 8.04 -13.1C8.61 -13.17 9.24 -13.21 9.93 -13.21C10.44 -13.21 10.95 -13.18 11.46 -13.14C11.97 -13.09 12.46 -13.02 12.92 -12.92C13.38 -12.82 13.81 -12.68 14.21 -12.51C14.6 -12.35 14.95 -12.14 15.24 -11.89C15.53 -11.64 15.76 -11.35 15.93 -11.01C16.09 -10.68 16.17 -10.29 16.17 -9.85L16.17 -8.78C14.85 -8.7 13.6 -8.61 12.41 -8.49C11.21 -8.38 10.1 -8.24 9.08 -8.06C8.05 -7.89 7.13 -7.68 6.3 -7.43C5.46 -7.18 4.76 -6.87 4.17 -6.52C3.58 -6.16 3.13 -5.74 2.81 -5.25C2.49 -4.77 2.33 -4.22 2.33 -3.59C2.33 -2.95 2.47 -2.39 2.74 -1.91C3.02 -1.43 3.41 -1.03 3.91 -0.7C4.42 -0.38 5.03 -0.13 5.76 0.03C6.49 0.19 7.31 0.28 8.23 0.28C8.93 0.28 9.65 0.23 10.38 0.14C11.11 0.05 11.82 -0.07 12.52 -0.24C13.21 -0.4 13.87 -0.59 14.5 -0.82C15.12 -1.05 15.68 -1.29 16.17 -1.56ZM16.17 -7.64L16.17 -2.9C15.94 -2.72 15.66 -2.55 15.32 -2.38C14.98 -2.21 14.6 -2.05 14.19 -1.9C13.78 -1.75 13.35 -1.61 12.88 -1.48C12.42 -1.36 11.95 -1.25 11.47 -1.15C10.99 -1.06 10.51 -0.99 10.03 -0.94C9.55 -0.89 9.08 -0.86 8.63 -0.86C7.86 -0.86 7.17 -0.92 6.56 -1.04C5.94 -1.16 5.42 -1.34 4.99 -1.57C4.56 -1.81 4.23 -2.1 4 -2.45C3.77 -2.8 3.66 -3.2 3.66 -3.65C3.66 -4.2 3.89 -4.7 4.36 -5.14C4.83 -5.57 5.56 -5.96 6.57 -6.28C7.57 -6.61 8.87 -6.89 10.45 -7.12C12.03 -7.34 13.94 -7.52 16.17 -7.64Z M45.34 -7.05C45.34 -8.4 45.14 -9.52 44.72 -10.43C44.31 -11.33 43.74 -12.05 43.01 -12.6C42.28 -13.14 41.42 -13.52 40.43 -13.75C39.44 -13.97 38.37 -14.09 37.21 -14.09L29.96 -14.09L29.96 0L37.23 0C38 0 38.74 -0.05 39.44 -0.15C40.14 -0.25 40.79 -0.41 41.39 -0.63C41.99 -0.84 42.53 -1.13 43.02 -1.5C43.51 -1.86 43.92 -2.3 44.27 -2.82C44.61 -3.34 44.87 -3.95 45.06 -4.65C45.25 -5.35 45.34 -6.15 45.34 -7.05ZM44.02 -7.05C44.02 -5.91 43.85 -4.95 43.52 -4.2C43.18 -3.44 42.72 -2.84 42.12 -2.39C41.52 -1.95 40.8 -1.63 39.97 -1.45C39.14 -1.27 38.22 -1.18 37.21 -1.18L31.25 -1.18L31.25 -12.92L37.21 -12.92C37.88 -12.92 38.51 -12.88 39.11 -12.81C39.7 -12.73 40.25 -12.6 40.76 -12.42C41.27 -12.24 41.72 -12 42.12 -11.71C42.53 -11.41 42.87 -11.05 43.15 -10.62C43.43 -10.18 43.64 -9.67 43.79 -9.08C43.94 -8.5 44.02 -7.82 44.02 -7.05Z M50.36 -4.87L50.36 -14.09L49.07 -14.09L49.07 -4.62C49.07 -3.82 49.16 -3.13 49.33 -2.55C49.5 -1.97 49.8 -1.49 50.24 -1.11C50.67 -0.73 51.26 -0.45 51.99 -0.27C52.73 -0.09 53.66 0 54.79 0L61.41 0L61.41 -1.24L55.04 -1.24C54.02 -1.24 53.19 -1.31 52.58 -1.45C51.96 -1.59 51.48 -1.81 51.16 -2.1C50.83 -2.4 50.61 -2.77 50.51 -3.23C50.41 -3.69 50.36 -4.23 50.36 -4.87Z M76.74 0L78.01 0L78.01 -9.56C78.01 -10.42 77.82 -11.16 77.44 -11.76C77.07 -12.37 76.55 -12.86 75.9 -13.25C75.24 -13.63 74.47 -13.91 73.58 -14.08C72.69 -14.26 71.73 -14.34 70.71 -14.34C69.5 -14.34 68.35 -14.25 67.28 -14.06C66.2 -13.87 65.19 -13.65 64.24 -13.4L64.24 -11.9C64.7 -12.08 65.15 -12.25 65.6 -12.41C66.05 -12.56 66.52 -12.7 67.02 -12.82C67.51 -12.94 68.04 -13.03 68.61 -13.1C69.17 -13.17 69.8 -13.21 70.49 -13.21C71 -13.21 71.52 -13.18 72.03 -13.14C72.53 -13.09 73.02 -13.02 73.48 -12.92C73.94 -12.82 74.37 -12.68 74.77 -12.51C75.16 -12.35 75.51 -12.14 75.8 -11.89C76.1 -11.64 76.33 -11.35 76.49 -11.01C76.65 -10.68 76.74 -10.29 76.74 -9.85L76.74 -8.78C75.42 -8.7 74.16 -8.61 72.97 -8.49C71.78 -8.38 70.67 -8.24 69.64 -8.06C68.62 -7.89 67.69 -7.68 66.86 -7.43C66.03 -7.18 65.32 -6.87 64.73 -6.52C64.14 -6.16 63.69 -5.74 63.37 -5.25C63.05 -4.77 62.9 -4.22 62.9 -3.59C62.9 -2.95 63.03 -2.39 63.31 -1.91C63.58 -1.43 63.97 -1.03 64.47 -0.7C64.98 -0.38 65.6 -0.13 66.32 0.03C67.05 0.19 67.87 0.28 68.79 0.28C69.49 0.28 70.21 0.23 70.94 0.14C71.67 0.05 72.39 -0.07 73.08 -0.24C73.77 -0.4 74.43 -0.59 75.06 -0.82C75.69 -1.05 76.24 -1.29 76.74 -1.56ZM76.74 -7.64L76.74 -2.9C76.5 -2.72 76.22 -2.55 75.88 -2.38C75.54 -2.21 75.17 -2.05 74.76 -1.9C74.35 -1.75 73.91 -1.61 73.45 -1.48C72.98 -1.36 72.51 -1.25 72.03 -1.15C71.55 -1.06 71.07 -0.99 70.59 -0.94C70.11 -0.89 69.64 -0.86 69.19 -0.86C68.42 -0.86 67.73 -0.92 67.12 -1.04C66.5 -1.16 65.98 -1.34 65.55 -1.57C65.12 -1.81 64.79 -2.1 64.56 -2.45C64.33 -2.8 64.22 -3.2 64.22 -3.65C64.22 -4.2 64.45 -4.7 64.92 -5.14C65.39 -5.57 66.12 -5.96 67.13 -6.28C68.13 -6.61 69.43 -6.89 71.01 -7.12C72.59 -7.34 74.5 -7.52 76.74 -7.64Z M104.97 -1.12L104.97 -1.12L104.97 -2.65C104.61 -2.41 104.21 -2.18 103.77 -1.96C103.33 -1.75 102.84 -1.56 102.32 -1.39C101.8 -1.23 101.24 -1.1 100.64 -1C100.04 -0.91 99.41 -0.86 98.74 -0.86C97.39 -0.86 96.21 -1.01 95.22 -1.3C94.23 -1.59 93.41 -2 92.77 -2.54C92.12 -3.07 91.64 -3.72 91.33 -4.48C91.02 -5.24 90.86 -6.09 90.86 -7.03C90.86 -7.98 91.02 -8.83 91.33 -9.59C91.64 -10.35 92.12 -11 92.77 -11.54C93.41 -12.08 94.23 -12.49 95.22 -12.79C96.21 -13.08 97.39 -13.23 98.74 -13.23C99.41 -13.23 100.04 -13.18 100.62 -13.08C101.21 -12.99 101.76 -12.86 102.28 -12.69C102.8 -12.53 103.28 -12.34 103.72 -12.12C104.17 -11.9 104.58 -11.67 104.97 -11.42L104.97 -12.96C104.48 -13.16 103.99 -13.35 103.51 -13.52C103.03 -13.69 102.53 -13.83 102.01 -13.95C101.49 -14.08 100.94 -14.17 100.37 -14.24C99.79 -14.31 99.17 -14.34 98.49 -14.34C97.65 -14.34 96.85 -14.28 96.08 -14.14C95.32 -14 94.6 -13.8 93.94 -13.52C93.28 -13.25 92.68 -12.91 92.14 -12.5C91.6 -12.1 91.13 -11.62 90.75 -11.08C90.36 -10.54 90.06 -9.93 89.85 -9.26C89.65 -8.58 89.54 -7.84 89.54 -7.03C89.54 -6.23 89.65 -5.49 89.85 -4.81C90.06 -4.13 90.36 -3.52 90.75 -2.98C91.13 -2.44 91.6 -1.97 92.14 -1.56C92.68 -1.16 93.28 -0.82 93.94 -0.54C94.6 -0.27 95.32 -0.06 96.09 0.07C96.86 0.21 97.66 0.28 98.49 0.28C99.17 0.28 99.79 0.24 100.37 0.17C100.94 0.11 101.49 0.01 102.01 -0.11C102.53 -0.24 103.03 -0.38 103.51 -0.55C103.99 -0.72 104.48 -0.91 104.97 -1.12Z M108.78 0L110.06 0L110.06 -14.09L108.78 -14.09Z M129 -0.74L129 -2.22C128.73 -2.05 128.38 -1.89 127.95 -1.73C127.52 -1.57 127.04 -1.42 126.52 -1.3C126 -1.17 125.46 -1.07 124.89 -0.99C124.33 -0.92 123.77 -0.88 123.21 -0.88C121.91 -0.88 120.78 -1.01 119.8 -1.28C118.83 -1.54 118.01 -1.92 117.34 -2.41C116.68 -2.9 116.16 -3.5 115.8 -4.2C115.44 -4.91 115.22 -5.7 115.14 -6.57L130.16 -6.57L130.16 -6.89C130.16 -8.02 129.99 -9.04 129.63 -9.95C129.27 -10.86 128.75 -11.63 128.07 -12.26C127.39 -12.9 126.55 -13.39 125.55 -13.73C124.55 -14.07 123.41 -14.24 122.13 -14.24C120.9 -14.24 119.78 -14.06 118.76 -13.71C117.74 -13.35 116.87 -12.85 116.14 -12.21C115.41 -11.57 114.84 -10.8 114.43 -9.9C114.02 -9.01 113.82 -8.02 113.82 -6.95C113.82 -5.84 114.03 -4.85 114.46 -3.96C114.88 -3.07 115.48 -2.31 116.27 -1.69C117.05 -1.06 118 -0.58 119.11 -0.25C120.22 0.09 121.47 0.26 122.85 0.26C123.45 0.26 123.99 0.24 124.49 0.2C124.98 0.16 125.47 0.1 125.95 0.03C126.43 -0.05 126.91 -0.16 127.4 -0.28C127.9 -0.41 128.43 -0.56 129 -0.74ZM128.9 -7.69L115.14 -7.69C115.23 -8.41 115.44 -9.1 115.77 -9.76C116.1 -10.41 116.55 -10.98 117.12 -11.48C117.7 -11.97 118.4 -12.37 119.22 -12.66C120.05 -12.96 121.01 -13.1 122.11 -13.1C123.28 -13.1 124.29 -12.96 125.12 -12.66C125.96 -12.37 126.65 -11.97 127.19 -11.47C127.74 -10.97 128.15 -10.4 128.42 -9.75C128.69 -9.09 128.85 -8.41 128.9 -7.69Z M147.88 -3.89C147.88 -4.42 147.81 -4.9 147.66 -5.33C147.52 -5.75 147.3 -6.12 146.99 -6.43C146.68 -6.74 146.28 -6.98 145.8 -7.17C145.31 -7.35 144.73 -7.47 144.04 -7.52C144.52 -7.6 144.94 -7.73 145.3 -7.88C145.65 -8.03 145.94 -8.23 146.17 -8.47C146.4 -8.71 146.57 -9 146.69 -9.33C146.8 -9.66 146.85 -10.06 146.85 -10.52C146.85 -11.03 146.79 -11.48 146.65 -11.85C146.52 -12.23 146.34 -12.55 146.1 -12.82C145.86 -13.08 145.59 -13.3 145.27 -13.46C144.95 -13.63 144.61 -13.75 144.23 -13.85C143.86 -13.94 143.47 -14 143.07 -14.04C142.67 -14.07 142.26 -14.09 141.86 -14.09L133.92 -14.09L133.92 0L142.05 0C142.57 0 143.08 -0.02 143.57 -0.06C144.07 -0.1 144.53 -0.18 144.96 -0.28C145.39 -0.39 145.78 -0.53 146.14 -0.71C146.5 -0.89 146.81 -1.13 147.06 -1.42C147.32 -1.71 147.52 -2.06 147.66 -2.46C147.81 -2.86 147.88 -3.34 147.88 -3.89ZM145.65 -10.5C145.65 -10.16 145.61 -9.85 145.52 -9.55C145.42 -9.24 145.23 -8.98 144.93 -8.76C144.63 -8.53 144.21 -8.35 143.66 -8.22C143.1 -8.08 142.36 -8.02 141.44 -8.02L135.2 -8.02L135.2 -12.94L141.44 -12.94C142.09 -12.94 142.65 -12.91 143.11 -12.84C143.57 -12.78 143.96 -12.69 144.27 -12.57C144.58 -12.46 144.83 -12.33 145.01 -12.17C145.19 -12.01 145.33 -11.84 145.43 -11.66C145.52 -11.48 145.59 -11.29 145.61 -11.09C145.64 -10.9 145.65 -10.7 145.65 -10.5ZM146.54 -3.91C146.54 -3.41 146.46 -2.99 146.31 -2.65C146.15 -2.3 145.9 -2.01 145.54 -1.79C145.18 -1.57 144.71 -1.41 144.12 -1.31C143.54 -1.21 142.82 -1.16 141.96 -1.16L135.2 -1.16L135.2 -6.89L141.79 -6.89C142.62 -6.89 143.33 -6.83 143.93 -6.72C144.53 -6.61 145.03 -6.43 145.41 -6.19C145.79 -5.95 146.07 -5.65 146.26 -5.27C146.44 -4.89 146.54 -4.44 146.54 -3.91Z M151.49 0L152.77 0L152.77 -14.09L151.49 -14.09Z M171.72 -0.74L171.72 -2.22C171.44 -2.05 171.09 -1.89 170.66 -1.73C170.23 -1.57 169.76 -1.42 169.24 -1.3C168.72 -1.17 168.17 -1.07 167.61 -0.99C167.04 -0.92 166.48 -0.88 165.92 -0.88C164.63 -0.88 163.49 -1.01 162.52 -1.28C161.54 -1.54 160.72 -1.92 160.05 -2.41C159.39 -2.9 158.87 -3.5 158.51 -4.2C158.15 -4.91 157.93 -5.7 157.86 -6.57L172.88 -6.57L172.88 -6.89C172.88 -8.02 172.7 -9.04 172.34 -9.95C171.99 -10.86 171.47 -11.63 170.78 -12.26C170.1 -12.9 169.26 -13.39 168.26 -13.73C167.26 -14.07 166.13 -14.24 164.85 -14.24C163.62 -14.24 162.49 -14.06 161.47 -13.71C160.46 -13.35 159.58 -12.85 158.85 -12.21C158.12 -11.57 157.55 -10.8 157.14 -9.9C156.74 -9.01 156.53 -8.02 156.53 -6.95C156.53 -5.84 156.74 -4.85 157.17 -3.96C157.59 -3.07 158.2 -2.31 158.98 -1.69C159.76 -1.06 160.71 -0.58 161.82 -0.25C162.94 0.09 164.18 0.26 165.57 0.26C166.16 0.26 166.71 0.24 167.2 0.2C167.7 0.16 168.18 0.1 168.66 0.03C169.14 -0.05 169.63 -0.16 170.12 -0.28C170.61 -0.41 171.14 -0.56 171.72 -0.74ZM171.61 -7.69L157.86 -7.69C157.94 -8.41 158.15 -9.1 158.48 -9.76C158.81 -10.41 159.26 -10.98 159.83 -11.48C160.41 -11.97 161.11 -12.37 161.94 -12.66C162.76 -12.96 163.73 -13.1 164.83 -13.1C166 -13.1 167 -12.96 167.84 -12.66C168.67 -12.37 169.36 -11.97 169.91 -11.47C170.45 -10.97 170.86 -10.4 171.13 -9.75C171.41 -9.09 171.57 -8.41 171.61 -7.69Z M177.58 -3.78L177.93 -11.86L177.93 -14.09L176.36 -14.09L176.36 -11.86L176.72 -3.78ZM176.36 0L177.93 0L177.93 -2.02L176.36 -2.02Z"></path></g></g></g></svg>